<mxfile host="app.diagrams.net" agent="Mozilla/5.0 (Macintosh; Intel Mac OS X 10_15_7) AppleWebKit/605.1.15 (KHTML, like Gecko) Version/17.2.1 Safari/605.1.15" version="24.7.12">
  <diagram name="Page-1" id="8Kjq7B1nXy96n5hohIe2">
    <mxGraphModel dx="792" dy="1187" grid="1" gridSize="10" guides="1" tooltips="1" connect="1" arrows="1" fold="1" page="1" pageScale="1" pageWidth="827" pageHeight="1169" math="0" shadow="0">
      <root>
        <mxCell id="0" />
        <mxCell id="1" parent="0" />
        <mxCell id="tclpv-OSM-qnSDP-S7_7-1" value="" style="rounded=0;whiteSpace=wrap;html=1;" vertex="1" parent="1">
          <mxGeometry x="190" y="525" width="420" height="60" as="geometry" />
        </mxCell>
        <mxCell id="tclpv-OSM-qnSDP-S7_7-2" value="" style="endArrow=none;html=1;rounded=0;exitX=0.25;exitY=1;exitDx=0;exitDy=0;entryX=0.25;entryY=0;entryDx=0;entryDy=0;" edge="1" parent="1">
          <mxGeometry width="50" height="50" relative="1" as="geometry">
            <mxPoint x="310" y="585" as="sourcePoint" />
            <mxPoint x="309.9999999999998" y="525" as="targetPoint" />
          </mxGeometry>
        </mxCell>
        <mxCell id="tclpv-OSM-qnSDP-S7_7-3" value="" style="endArrow=none;html=1;rounded=0;exitX=0.25;exitY=1;exitDx=0;exitDy=0;entryX=0.25;entryY=0;entryDx=0;entryDy=0;" edge="1" parent="1">
          <mxGeometry width="50" height="50" relative="1" as="geometry">
            <mxPoint x="250" y="585" as="sourcePoint" />
            <mxPoint x="250" y="525" as="targetPoint" />
          </mxGeometry>
        </mxCell>
        <mxCell id="tclpv-OSM-qnSDP-S7_7-4" value="" style="endArrow=none;html=1;rounded=0;exitX=0.25;exitY=1;exitDx=0;exitDy=0;entryX=0.25;entryY=0;entryDx=0;entryDy=0;" edge="1" parent="1">
          <mxGeometry width="50" height="50" relative="1" as="geometry">
            <mxPoint x="370" y="585" as="sourcePoint" />
            <mxPoint x="369.9999999999998" y="525" as="targetPoint" />
          </mxGeometry>
        </mxCell>
        <mxCell id="tclpv-OSM-qnSDP-S7_7-5" value="" style="endArrow=none;html=1;rounded=0;exitX=0.25;exitY=1;exitDx=0;exitDy=0;entryX=0.25;entryY=0;entryDx=0;entryDy=0;" edge="1" parent="1">
          <mxGeometry width="50" height="50" relative="1" as="geometry">
            <mxPoint x="430" y="585" as="sourcePoint" />
            <mxPoint x="429.9999999999998" y="525" as="targetPoint" />
          </mxGeometry>
        </mxCell>
        <mxCell id="tclpv-OSM-qnSDP-S7_7-6" value="" style="endArrow=none;html=1;rounded=0;exitX=0.25;exitY=1;exitDx=0;exitDy=0;entryX=0.25;entryY=0;entryDx=0;entryDy=0;" edge="1" parent="1">
          <mxGeometry width="50" height="50" relative="1" as="geometry">
            <mxPoint x="490" y="585" as="sourcePoint" />
            <mxPoint x="489.9999999999998" y="525" as="targetPoint" />
          </mxGeometry>
        </mxCell>
        <mxCell id="tclpv-OSM-qnSDP-S7_7-7" value="" style="endArrow=none;html=1;rounded=0;exitX=0.25;exitY=1;exitDx=0;exitDy=0;entryX=0.25;entryY=0;entryDx=0;entryDy=0;" edge="1" parent="1">
          <mxGeometry width="50" height="50" relative="1" as="geometry">
            <mxPoint x="550" y="585" as="sourcePoint" />
            <mxPoint x="549.9999999999998" y="525" as="targetPoint" />
          </mxGeometry>
        </mxCell>
        <mxCell id="tclpv-OSM-qnSDP-S7_7-8" value="" style="whiteSpace=wrap;html=1;aspect=fixed;" vertex="1" parent="1">
          <mxGeometry x="640" y="440" width="60" height="60" as="geometry" />
        </mxCell>
        <mxCell id="tclpv-OSM-qnSDP-S7_7-9" value="" style="whiteSpace=wrap;html=1;aspect=fixed;" vertex="1" parent="1">
          <mxGeometry x="100" y="620" width="60" height="60" as="geometry" />
        </mxCell>
        <mxCell id="tclpv-OSM-qnSDP-S7_7-11" value="" style="endArrow=classic;html=1;rounded=0;curved=1;strokeWidth=2;" edge="1" parent="1">
          <mxGeometry width="50" height="50" relative="1" as="geometry">
            <mxPoint x="680" y="520" as="sourcePoint" />
            <mxPoint x="640" y="570" as="targetPoint" />
            <Array as="points">
              <mxPoint x="690" y="570" />
            </Array>
          </mxGeometry>
        </mxCell>
        <mxCell id="tclpv-OSM-qnSDP-S7_7-13" value="" style="endArrow=classic;html=1;rounded=0;curved=1;strokeWidth=2;" edge="1" parent="1">
          <mxGeometry width="50" height="50" relative="1" as="geometry">
            <mxPoint x="170" y="560" as="sourcePoint" />
            <mxPoint x="130" y="610" as="targetPoint" />
            <Array as="points">
              <mxPoint x="120" y="560" />
            </Array>
          </mxGeometry>
        </mxCell>
        <mxCell id="tclpv-OSM-qnSDP-S7_7-14" value="Front / Head" style="text;html=1;align=left;verticalAlign=middle;whiteSpace=wrap;rounded=0;fontSize=16;fontStyle=0" vertex="1" parent="1">
          <mxGeometry x="190" y="495" width="120" height="30" as="geometry" />
        </mxCell>
        <mxCell id="tclpv-OSM-qnSDP-S7_7-15" value="Back / Tail" style="text;html=1;align=right;verticalAlign=middle;whiteSpace=wrap;rounded=0;fontSize=16;fontStyle=0" vertex="1" parent="1">
          <mxGeometry x="490" y="495" width="120" height="30" as="geometry" />
        </mxCell>
        <mxCell id="tclpv-OSM-qnSDP-S7_7-16" value="Dequeue" style="text;html=1;align=left;verticalAlign=middle;whiteSpace=wrap;rounded=0;fontSize=15;fontStyle=0" vertex="1" parent="1">
          <mxGeometry x="140" y="590" width="120" height="30" as="geometry" />
        </mxCell>
        <mxCell id="tclpv-OSM-qnSDP-S7_7-17" value="Enqueue" style="text;html=1;align=left;verticalAlign=middle;whiteSpace=wrap;rounded=0;fontSize=16;fontStyle=0" vertex="1" parent="1">
          <mxGeometry x="620" y="585" width="120" height="30" as="geometry" />
        </mxCell>
        <mxCell id="tclpv-OSM-qnSDP-S7_7-18" value="&lt;font size=&quot;1&quot;&gt;&lt;b style=&quot;font-size: 28px;&quot;&gt;2&lt;/b&gt;&lt;/font&gt;" style="text;html=1;align=center;verticalAlign=middle;whiteSpace=wrap;rounded=0;" vertex="1" parent="1">
          <mxGeometry x="100" y="635" width="60" height="30" as="geometry" />
        </mxCell>
        <mxCell id="tclpv-OSM-qnSDP-S7_7-19" value="&lt;font size=&quot;1&quot;&gt;&lt;b style=&quot;font-size: 28px;&quot;&gt;3&lt;/b&gt;&lt;/font&gt;" style="text;html=1;align=center;verticalAlign=middle;whiteSpace=wrap;rounded=0;" vertex="1" parent="1">
          <mxGeometry x="190" y="540" width="60" height="30" as="geometry" />
        </mxCell>
        <mxCell id="tclpv-OSM-qnSDP-S7_7-20" value="&lt;font size=&quot;1&quot;&gt;&lt;b style=&quot;font-size: 28px;&quot;&gt;4&lt;/b&gt;&lt;/font&gt;" style="text;html=1;align=center;verticalAlign=middle;whiteSpace=wrap;rounded=0;" vertex="1" parent="1">
          <mxGeometry x="250" y="540" width="60" height="30" as="geometry" />
        </mxCell>
        <mxCell id="tclpv-OSM-qnSDP-S7_7-21" value="&lt;font size=&quot;1&quot;&gt;&lt;b style=&quot;font-size: 28px;&quot;&gt;5&lt;/b&gt;&lt;/font&gt;" style="text;html=1;align=center;verticalAlign=middle;whiteSpace=wrap;rounded=0;" vertex="1" parent="1">
          <mxGeometry x="310" y="540" width="60" height="30" as="geometry" />
        </mxCell>
        <mxCell id="tclpv-OSM-qnSDP-S7_7-22" value="&lt;font size=&quot;1&quot;&gt;&lt;b style=&quot;font-size: 28px;&quot;&gt;6&lt;/b&gt;&lt;/font&gt;" style="text;html=1;align=center;verticalAlign=middle;whiteSpace=wrap;rounded=0;" vertex="1" parent="1">
          <mxGeometry x="370" y="540" width="60" height="30" as="geometry" />
        </mxCell>
        <mxCell id="tclpv-OSM-qnSDP-S7_7-23" value="&lt;font size=&quot;1&quot;&gt;&lt;b style=&quot;font-size: 28px;&quot;&gt;7&lt;/b&gt;&lt;/font&gt;" style="text;html=1;align=center;verticalAlign=middle;whiteSpace=wrap;rounded=0;" vertex="1" parent="1">
          <mxGeometry x="430" y="540" width="60" height="30" as="geometry" />
        </mxCell>
        <mxCell id="tclpv-OSM-qnSDP-S7_7-24" value="&lt;font size=&quot;1&quot;&gt;&lt;b style=&quot;font-size: 28px;&quot;&gt;8&lt;/b&gt;&lt;/font&gt;" style="text;html=1;align=center;verticalAlign=middle;whiteSpace=wrap;rounded=0;" vertex="1" parent="1">
          <mxGeometry x="490" y="540" width="60" height="30" as="geometry" />
        </mxCell>
        <mxCell id="tclpv-OSM-qnSDP-S7_7-25" value="&lt;font size=&quot;1&quot;&gt;&lt;b style=&quot;font-size: 28px;&quot;&gt;9&lt;/b&gt;&lt;/font&gt;" style="text;html=1;align=center;verticalAlign=middle;whiteSpace=wrap;rounded=0;" vertex="1" parent="1">
          <mxGeometry x="550" y="540" width="60" height="30" as="geometry" />
        </mxCell>
        <mxCell id="tclpv-OSM-qnSDP-S7_7-26" value="&lt;font size=&quot;1&quot;&gt;&lt;b style=&quot;font-size: 28px;&quot;&gt;10&lt;/b&gt;&lt;/font&gt;" style="text;html=1;align=center;verticalAlign=middle;whiteSpace=wrap;rounded=0;" vertex="1" parent="1">
          <mxGeometry x="640" y="455" width="60" height="30" as="geometry" />
        </mxCell>
      </root>
    </mxGraphModel>
  </diagram>
</mxfile>
